<svg xmlns="http://www.w3.org/2000/svg" width="22" height="22">
    <path fill="#FCE6B3" fill-rule="evenodd" d="M11.236 21.318c-5.778 0-10.478-4.7-10.478-10.477C.758 5.063 5.458.363 11.236.363a1.28 1.28 0 0 1 1.278 1.278c0 .704-.573 1.277-1.278 1.277-4.369 0-7.922 3.554-7.922 7.923 0 4.368 3.553 7.922 7.922 7.922 4.368 0 7.922-3.554 7.922-7.922a1.28 1.28 0 0 1 2.556 0c0 5.777-4.701 10.477-10.478 10.477zm5.635-10.477a1.23 1.23 0 0 1-1.229 1.228h-3.818a1.818 1.818 0 0 1-1.817-1.816V6.435c0-.679.551-1.23 1.229-1.23a1.23 1.23 0 0 1 1.228 1.23v3.177h3.178a1.23 1.23 0 0 1 1.229 1.229zm3.341-2.402a1.28 1.28 0 0 1-1.675-.679 7.989 7.989 0 0 0-4.22-4.22 1.272 1.272 0 0 1-.686-.698 1.274 1.274 0 0 1 .704-1.663 1.27 1.27 0 0 1 .978.007 10.563 10.563 0 0 1 5.578 5.579 1.278 1.278 0 0 1-.679 1.674z"/>
</svg>
