<svg xmlns="http://www.w3.org/2000/svg" width="27" height="21">
    <path fill="#369C6D" fill-rule="evenodd" d="M24.3 4.437l-8.27 6.432a4.142 4.142 0 0 1-5.06 0L2.7 4.437v12.625c0 .725.604 1.312 1.35 1.312h4.59a.8.8 0 0 1 .81.788v1.05a.799.799 0 0 1-.81.787H4.05c-2.237 0-4.05-1.763-4.05-3.937V3.937C0 1.762 1.813-.001 4.05-.001h18.9c2.237 0 4.05 1.763 4.05 3.938v13.125c0 2.174-1.813 3.937-4.05 3.937h-4.59a.798.798 0 0 1-.81-.787v-1.05c0-.435.362-.788.81-.788h4.59c.745 0 1.35-.587 1.35-1.312V4.437zm-1.992-1.813H4.692l7.964 6.195a1.382 1.382 0 0 0 1.687 0l7.965-6.195zM11.61 18.374h3.78a.8.8 0 0 1 .81.788v1.05a.799.799 0 0 1-.81.787h-3.78a.798.798 0 0 1-.81-.787v-1.05c0-.435.362-.788.81-.788z"/>
</svg>
