<svg xmlns="http://www.w3.org/2000/svg" width="25" height="25">
    <path fill="#378467" fill-rule="evenodd" d="M2.778 8.333a1.388 1.388 0 0 1-2.778 0V4.166A4.167 4.167 0 0 1 4.166-.001h4.167a1.39 1.39 0 0 1 0 2.778H4.166c-.767 0-1.388.622-1.388 1.389v4.167zm10.844 4.166l-3.531-3.448a1.217 1.217 0 0 1 0-1.746 1.281 1.281 0 0 1 1.784 0l4.422 4.321a1.217 1.217 0 0 1 0 1.746l-4.422 4.321a1.281 1.281 0 0 1-1.784 0 1.216 1.216 0 0 1 0-1.745l3.531-3.449zm.267-9.722a1.39 1.39 0 0 1 0-2.778h6.944A4.167 4.167 0 0 1 25 4.166v16.667a4.167 4.167 0 0 1-4.167 4.166H4.166A4.166 4.166 0 0 1 0 20.833v-6.945a1.39 1.39 0 0 1 2.778 0v6.945c0 .767.621 1.388 1.388 1.388h16.667c.767 0 1.389-.621 1.389-1.388V4.166a1.39 1.39 0 0 0-1.389-1.389h-6.944z"/>
</svg>
