<svg 
 xmlns="http://www.w3.org/2000/svg"
 xmlns:xlink="http://www.w3.org/1999/xlink"
 width="25.753mm" height="25.753mm">
<path fill-rule="evenodd"  fill="rgb(54, 156, 109)"
 d="M68.756,56.525 L67.341,56.525 L67.341,60.217 C67.341,64.133 64.168,67.318 60.268,67.318 L57.862,67.318 C57.205,70.556 54.347,73.000 50.932,73.000 L7.644,73.000 C3.744,73.000 0.571,69.814 0.571,65.898 L0.571,22.439 C0.571,18.524 3.744,15.338 7.644,15.338 L9.059,15.338 L9.059,13.918 C9.059,11.568 10.962,9.657 13.303,9.657 L17.546,9.657 L17.546,4.544 C17.546,2.195 19.450,0.284 21.790,0.284 L48.102,0.284 C50.443,0.284 52.346,2.195 52.346,4.544 L52.346,15.338 L60.268,15.338 C64.168,15.338 67.341,18.524 67.341,22.439 L67.341,33.801 C70.461,33.801 73.000,36.350 73.000,39.482 L73.000,52.264 C73.000,54.614 71.096,56.525 68.756,56.525 ZM58.005,64.478 L60.268,64.478 C62.608,64.478 64.512,62.567 64.512,60.217 L64.512,56.525 L58.005,56.525 L58.005,64.478 ZM9.059,18.179 L7.644,18.179 C5.304,18.179 3.400,20.090 3.400,22.439 C3.400,25.000 5.609,26.700 7.947,26.700 L9.059,26.700 L9.059,18.179 ZM13.303,12.498 C12.522,12.498 11.888,13.135 11.888,13.918 L11.888,26.700 L23.205,26.700 L23.205,12.498 L13.303,12.498 ZM49.517,4.544 C49.517,3.761 48.883,3.124 48.102,3.124 L21.790,3.124 C21.010,3.124 20.376,3.761 20.376,4.544 L20.376,9.657 L38.766,9.657 C41.106,9.657 43.010,11.568 43.010,13.918 L43.010,26.700 L49.517,26.700 L49.517,4.544 ZM26.034,12.498 L26.034,26.700 L31.693,26.700 L31.693,12.498 L26.034,12.498 ZM34.522,12.498 L34.522,26.700 L40.180,26.700 L40.180,13.918 C40.180,13.135 39.546,12.498 38.766,12.498 L34.522,12.498 ZM50.932,29.541 L7.947,29.541 C6.254,29.541 4.665,28.978 3.400,28.033 L3.400,65.898 C3.400,68.248 5.304,70.159 7.644,70.159 L50.932,70.159 C53.272,70.159 55.176,68.248 55.176,65.898 L55.176,56.525 L45.273,56.525 C42.933,56.525 41.029,54.614 41.029,52.264 L41.029,46.583 C41.029,44.234 42.933,42.322 45.273,42.322 L55.176,42.322 L55.176,33.801 C55.176,31.451 53.272,29.541 50.932,29.541 ZM64.512,22.439 C64.512,20.090 62.608,18.179 60.268,18.179 L52.346,18.179 L52.346,26.843 C55.571,27.503 58.005,30.372 58.005,33.801 L58.005,42.322 L64.512,42.322 L64.512,22.439 ZM67.341,36.642 L67.341,42.322 C68.904,42.322 70.171,41.051 70.171,39.482 C70.171,37.916 68.901,36.642 67.341,36.642 ZM70.171,44.402 C69.320,44.898 68.351,45.163 67.341,45.163 L45.273,45.163 C44.493,45.163 43.859,45.800 43.859,46.583 L43.859,52.264 C43.859,53.047 44.493,53.684 45.273,53.684 L68.756,53.684 C69.536,53.684 70.171,53.047 70.171,52.264 L70.171,44.402 ZM60.268,50.844 L53.761,50.844 C52.980,50.844 52.346,50.208 52.346,49.424 C52.346,48.639 52.980,48.003 53.761,48.003 L60.268,48.003 C61.050,48.003 61.683,48.639 61.683,49.424 C61.683,50.208 61.050,50.844 60.268,50.844 ZM48.102,50.844 C47.322,50.844 46.688,50.208 46.688,49.424 C46.688,48.640 47.322,48.003 48.102,48.003 C48.883,48.003 49.517,48.640 49.517,49.424 C49.517,50.208 48.883,50.844 48.102,50.844 ZM17.546,23.859 C16.765,23.859 16.132,23.224 16.132,22.439 L16.132,16.758 C16.132,15.974 16.765,15.338 17.546,15.338 C18.328,15.338 18.961,15.974 18.961,16.758 L18.961,22.439 C18.961,23.224 18.328,23.859 17.546,23.859 Z"/>
</svg>