<svg 
 xmlns="http://www.w3.org/2000/svg"
 xmlns:xlink="http://www.w3.org/1999/xlink"
 width="31.397mm" height="25.753mm">
<path fill-rule="evenodd"  fill="rgb(54, 156, 109)"
 d="M87.275,36.072 L72.324,36.072 L72.324,30.797 C72.324,29.825 71.545,29.038 70.585,29.038 L66.972,29.038 C66.783,28.485 66.682,27.893 66.682,27.280 C66.682,25.328 67.689,23.598 69.376,22.650 C70.407,22.071 71.785,21.466 71.395,19.993 C71.007,18.528 69.491,18.693 68.332,18.712 C66.405,18.742 64.676,17.755 63.711,16.064 C62.747,14.375 62.763,12.367 63.755,10.694 C64.363,9.668 65.261,8.454 64.190,7.371 C63.149,6.317 61.896,7.209 60.905,7.811 C59.250,8.814 57.265,8.831 55.595,7.855 C53.924,6.880 52.945,5.133 52.977,3.181 C52.997,1.987 53.160,0.476 51.712,0.083 C50.256,-0.311 49.648,1.098 49.084,2.126 C48.147,3.832 46.436,4.850 44.507,4.850 C42.578,4.850 40.867,3.832 39.930,2.127 C39.322,1.020 37.943,-0.493 36.594,0.227 C35.350,0.889 35.741,2.296 36.036,3.388 C35.998,5.255 35.031,6.914 33.419,7.855 C31.748,8.831 29.763,8.814 28.109,7.811 C27.097,7.197 25.887,6.295 24.823,7.371 C23.765,8.440 24.661,9.686 25.258,10.694 C26.250,12.367 26.267,14.375 25.302,16.064 C24.338,17.755 22.612,18.746 20.681,18.712 C19.499,18.692 18.008,18.522 17.619,19.992 C17.236,21.437 18.628,22.083 19.638,22.651 C21.324,23.598 22.331,25.328 22.331,27.280 C22.331,27.894 22.228,28.485 22.038,29.038 L18.429,29.038 C17.468,29.038 16.690,29.825 16.690,30.797 L16.690,36.072 L1.738,36.072 C0.778,36.072 0.000,36.859 0.000,37.830 L0.000,71.241 C0.000,72.212 0.778,73.000 1.738,73.000 L87.275,73.000 C88.235,73.000 89.014,72.212 89.014,71.241 L89.014,37.830 C89.014,36.859 88.235,36.072 87.275,36.072 ZM28.314,17.823 C29.355,15.999 29.709,13.952 29.379,11.978 C31.330,12.312 33.354,11.954 35.157,10.901 C36.961,9.848 38.280,8.254 38.970,6.377 C40.494,7.654 42.424,8.367 44.507,8.367 C46.590,8.367 48.520,7.653 50.044,6.377 C50.733,8.254 52.052,9.848 53.856,10.901 C55.660,11.954 57.683,12.313 59.635,11.978 C59.305,13.952 59.659,15.999 60.700,17.823 C61.741,19.648 63.317,20.981 65.172,21.679 C63.910,23.221 63.205,25.173 63.205,27.280 C63.205,27.880 63.265,28.468 63.376,29.038 L49.423,29.038 C49.616,28.487 49.723,27.896 49.723,27.280 C49.723,24.371 47.383,22.004 44.507,22.004 C41.631,22.004 39.291,24.371 39.291,27.280 C39.291,27.896 39.397,28.487 39.590,29.038 L25.638,29.038 C25.750,28.469 25.808,27.880 25.808,27.280 C25.808,25.173 25.103,23.221 23.841,21.679 C25.696,20.981 27.272,19.648 28.314,17.823 ZM46.245,27.280 C46.245,28.249 45.465,29.038 44.507,29.038 C43.548,29.038 42.768,28.249 42.768,27.280 C42.768,26.310 43.548,25.521 44.507,25.521 C45.465,25.521 46.245,26.310 46.245,27.280 ZM20.167,32.555 L68.847,32.555 L68.847,36.072 L20.167,36.072 L20.167,32.555 ZM19.124,69.482 L3.477,69.482 L3.477,65.966 L19.124,65.966 L19.124,69.482 ZM85.537,69.482 L69.890,69.482 L69.890,65.966 L85.537,65.966 L85.537,69.482 ZM85.537,62.448 L51.635,62.448 C50.677,62.448 49.896,63.238 49.896,64.207 C49.896,65.178 50.677,65.966 51.635,65.966 L66.413,65.966 L66.413,69.482 L22.601,69.482 L22.601,65.966 L37.726,65.966 C38.684,65.966 39.465,65.178 39.465,64.207 C39.465,63.238 38.684,62.448 37.726,62.448 L3.477,62.448 L3.477,39.589 L85.537,39.589 L85.537,62.448 Z"/>
</svg>