<svg 
 xmlns="http://www.w3.org/2000/svg"
 xmlns:xlink="http://www.w3.org/1999/xlink"
 width="27.164mm" height="27.164mm">
<path fill-rule="evenodd"  fill="rgb(54, 156, 109)"
 d="M61.631,55.612 L76.665,74.561 C77.024,75.012 77.093,75.630 76.841,76.149 C76.591,76.670 76.064,77.000 75.488,77.000 L1.517,77.000 C0.940,77.000 0.414,76.670 0.163,76.149 C-0.087,75.630 -0.019,75.012 0.340,74.561 L15.374,55.612 C15.660,55.252 16.093,55.042 16.552,55.042 L29.722,55.042 L18.478,37.402 C15.840,33.446 14.447,28.834 14.447,24.062 C14.447,10.794 25.238,-0.000 38.502,-0.000 C51.767,-0.000 62.558,10.794 62.558,24.062 C62.558,28.834 61.164,33.447 58.527,37.402 L47.283,55.042 L60.453,55.042 C60.912,55.042 61.346,55.252 61.631,55.612 ZM72.375,73.992 L67.244,67.525 L58.153,67.525 L63.284,73.992 L72.375,73.992 ZM59.445,73.992 L54.315,67.525 L22.691,67.525 L17.559,73.992 L59.445,73.992 ZM4.630,73.992 L13.721,73.992 L18.852,67.525 L9.761,67.525 L4.630,73.992 ZM17.278,58.050 L12.147,64.517 L21.238,64.517 L26.369,58.050 L17.278,58.050 ZM25.077,64.517 L35.761,64.517 L31.639,58.050 L30.208,58.050 L25.077,64.517 ZM56.000,35.772 C56.005,35.763 56.011,35.754 56.017,35.746 C58.329,32.283 59.551,28.243 59.551,24.062 C59.551,12.453 50.108,3.008 38.502,3.008 C26.896,3.008 17.454,12.453 17.454,24.062 C17.454,28.243 18.676,32.283 20.988,35.746 C20.994,35.754 21.000,35.763 21.005,35.772 C22.953,38.828 36.590,60.222 38.502,63.224 C39.263,62.031 55.012,37.321 56.000,35.772 ZM46.797,58.050 L45.366,58.050 L41.245,64.517 L51.928,64.517 L46.797,58.050 ZM50.636,58.050 L55.767,64.517 L64.858,64.517 L59.727,58.050 L50.636,58.050 ZM37.726,56.031 C37.015,55.602 36.786,54.679 37.214,53.967 L42.771,44.745 C43.200,44.033 44.125,43.804 44.835,44.234 C45.546,44.662 45.775,45.586 45.347,46.298 L39.790,55.520 C39.363,56.228 38.440,56.462 37.726,56.031 ZM47.523,39.101 C48.353,39.101 49.027,39.775 49.027,40.605 C49.027,41.435 48.353,42.109 47.523,42.109 C46.693,42.109 46.020,41.435 46.020,40.605 C46.020,39.775 46.693,39.101 47.523,39.101 ZM23.468,24.062 C23.468,15.769 30.212,9.023 38.502,9.023 C46.793,9.023 53.537,15.769 53.537,24.062 C53.537,32.415 46.756,39.101 38.502,39.101 C30.251,39.101 23.468,32.418 23.468,24.062 ZM50.530,24.062 C50.530,17.428 45.135,12.031 38.502,12.031 C31.870,12.031 26.475,17.428 26.475,24.062 C26.475,30.758 31.912,36.093 38.502,36.093 C45.091,36.093 50.530,30.758 50.530,24.062 Z"/>
</svg>