<svg xmlns="http://www.w3.org/2000/svg" width="25" height="25">
    <path fill="#369C6D" fill-rule="evenodd" d="M2.777 8.332a1.389 1.389 0 1 1-2.777 0V4.166A4.167 4.167 0 0 1 4.166-.002h4.167a1.39 1.39 0 0 1 0 2.778H4.166a1.39 1.39 0 0 0-1.389 1.39v4.166zm10.845 4.166L10.091 9.05a1.216 1.216 0 0 1 0-1.745 1.28 1.28 0 0 1 1.784 0l4.422 4.321a1.216 1.216 0 0 1 0 1.745l-4.422 4.321a1.28 1.28 0 0 1-1.784 0 1.216 1.216 0 0 1 0-1.745l3.531-3.449zm.266-9.722a1.388 1.388 0 0 1 0-2.778h6.945a4.167 4.167 0 0 1 4.166 4.168v16.666a4.167 4.167 0 0 1-4.166 4.167H4.166A4.167 4.167 0 0 1 0 20.832v-6.945a1.389 1.389 0 1 1 2.777 0v6.945a1.39 1.39 0 0 0 1.389 1.389h16.667a1.39 1.39 0 0 0 1.389-1.389V4.166a1.39 1.39 0 0 0-1.389-1.39h-6.945z"/>
</svg>
