<svg 
 xmlns="http://www.w3.org/2000/svg"
 xmlns:xlink="http://www.w3.org/1999/xlink"
 width="9.525mm" height="9.172mm">
<path fill-rule="evenodd"  fill="rgb(255, 255, 255)"
 d="M19.592,7.799 C18.870,7.799 18.286,7.217 18.286,6.499 C18.286,5.781 18.870,5.199 19.592,5.199 C20.313,5.199 20.898,5.781 20.898,6.499 C20.898,7.217 20.313,7.799 19.592,7.799 ZM7.837,2.599 C4.951,2.599 2.612,4.928 2.612,7.799 L2.612,18.199 C2.612,21.071 4.951,23.399 7.837,23.399 L18.286,23.399 C21.171,23.399 23.510,21.071 23.510,18.199 L23.510,7.799 C23.510,4.928 21.171,2.599 18.286,2.599 L7.837,2.599 ZM7.837,-0.001 L18.286,-0.001 C22.614,-0.001 26.122,3.491 26.122,7.799 L26.122,18.199 C26.122,22.507 22.614,25.999 18.286,25.999 L7.837,25.999 C3.509,25.999 -0.000,22.507 -0.000,18.199 L-0.000,7.799 C-0.000,3.491 3.509,-0.001 7.837,-0.001 ZM10.619,19.029 C9.950,18.760 9.627,18.003 9.897,17.338 C10.166,16.671 10.927,16.349 11.597,16.618 C12.057,16.803 12.551,16.899 13.061,16.899 C15.225,16.899 16.980,15.153 16.980,12.999 C16.980,10.845 15.225,9.099 13.061,9.099 C10.897,9.099 9.143,10.845 9.143,12.999 C9.143,13.508 9.240,14.002 9.427,14.461 C9.698,15.127 9.375,15.885 8.706,16.154 C8.038,16.423 7.276,16.102 7.006,15.437 C6.693,14.668 6.531,13.844 6.531,12.999 C6.531,9.409 9.454,6.499 13.061,6.499 C16.668,6.499 19.592,9.409 19.592,12.999 C19.592,16.589 16.668,19.499 13.061,19.499 C12.215,19.499 11.389,19.338 10.619,19.029 Z"/>
</svg>