<svg xmlns="http://www.w3.org/2000/svg" width="160" height="73">
    <path fill="#F8F6E5" fill-rule="evenodd" d="M159.93 63.167c0 1.18.172 2.634-.12 3.501-.318.942-1.386.97-2.514 1.117-9.484 1.24-19.551 2.218-29.559 3.049-21.953 1.822-46.339 2.811-69.871 1.72a718.469 718.469 0 0 1-27.227-1.781c-8.942-.756-17.691-1.744-26.228-2.777-1.136-.137-2.244-.208-3.21-.422-1.125-.25-1.212-1.113-1.212-2.415V10.922c0-1.295-.037-2.342.939-2.687.445-.157 1.007-.208 1.514-.301 5.582-1.032 11.421-1.868 17.263-2.657A528.782 528.782 0 0 1 45.842 2.41c4.487-.379 8.982-.641 13.569-.936 3.463-.222 6.922-.258 10.509-.392 1.186-.045 2.379-.002 3.604-.06 2.271-.109 4.918-.031 7.299-.031 2.397 0 4.81.065 7.118.151 4.74.178 9.359.299 13.901.603 13.778.927 26.894 2.119 39.675 3.834a500.095 500.095 0 0 1 15.779 2.355c1.081.18 2.189.223 2.514 1.116.292.806.12 2.332.12 3.501 0 16.755.002 33.881 0 50.616zm-1.483-53.483c-.055-.158-.077-.1-.152-.121-.744-.204-1.618-.256-2.453-.392-5.715-.93-11.658-1.762-17.475-2.505-16.871-2.156-34.401-3.739-52.971-4.105-3.621-.071-7.77-.23-11.418-.06-1.635.076-3.257.015-4.876.09-1.607.075-3.221.091-4.815.151-9.605.358-18.81 1.05-27.864 2.022A591.4 591.4 0 0 0 9.984 8.205c-2.867.44-5.722.842-8.511 1.449v56.501c24.724 3.098 50.717 5.407 78.472 5.403 6.917-.001 13.754-.187 20.473-.482a719.672 719.672 0 0 0 58.029-4.921V9.684zm-57.756 50.654c-.699.118-1.766.061-2.545.03-.038-.361.42-.226.607-.362.062-1.593.028-3.321 0-4.92-.154-.139-.548-.037-.607-.271.008-.19.276-.131.395-.151.41-.072.9-.178 1.332-.272.181-.019.052.27.091.392 1.468-.952 3.168-.1 2.968 1.841-.14 1.364-1.278 2.022-2.937 1.842-.095.465.028.977 0 1.479.125.237.697.029.696.392zm.515-2.475c.572-.468.689-2.262-.03-2.747-.316-.212-.737-.193-1.212 0v2.898c.526.072.926.107 1.242-.151zm5.997-3.471c1.404-.137 2.15.536 2.089 1.931h-2.696c.039.68.173 1.141.637 1.389.549.295 1.366.169 2.028.181.072.341-.335.363-.514.423-1.552.515-3.639 0-3.422-2.113.103-1.006.921-1.718 1.878-1.811zm.817 1.539c-.055-.437-.014-.873-.272-1.056-.571-.404-1.154.392-1.121 1.056h1.393zm5.361-10.323c.139-.244.091-.879.091-1.327 0-3.133.063-6.743.03-9.779H99.995c-.031 3.032.03 6.543.03 9.749 0 .464-.037 1.002.091 1.298.152.352.805.452 1.181.573.477.153.889.276 1.302.423-.021.292.051.492.03.784-2.941-.085-6.052-.08-8.995 0-.03-.245-.08-.619-.061-.814.399-.098.904-.266 1.424-.424.413-.124 1.107-.219 1.272-.542.11-.217.091-.838.091-1.328v-19.68c0-.494.024-1.043-.091-1.297-.15-.335-.827-.477-1.241-.604-.54-.165-1.06-.309-1.424-.423-.031-.211-.076-.696 0-.814 2.934.096 6.012.121 8.934 0 .045.257.082.522.091.814-.436.115-.819.244-1.302.393-.334.102-1.003.203-1.181.483-.246.384-.121 1.704-.121 2.354 0 2.37-.064 5.094-.03 7.334 4.441.071 9.014.01 13.507.03-.008-2.592.024-5.727-.03-8.481-.009-.399.05-.893-.061-1.147-.139-.32-.802-.464-1.151-.573-.497-.156-.892-.257-1.332-.393a6.286 6.286 0 0 1-.03-.814c2.959.105 6.033.101 8.995 0-.007.298.049.533.06.814-.374.087-.865.262-1.393.423-.406.124-1.077.225-1.272.513-.275.404-.152 2.046-.152 2.686v16.993c0 .406.008.911.03 1.389.023.497-.055 1.101.061 1.328.17.33.877.416 1.303.542.512.153 1.019.338 1.393.454-.024.294.043.5.03.784a162.501 162.501 0 0 0-8.995 0c-.009-.282-.074-.51-.06-.814.437-.112.826-.246 1.302-.393.339-.104 1.013-.218 1.181-.514zm-1.848 8.935c.018-.165.244-.087.333-.091 1.135-.046 3.426-.264 3.726.573.235.658-.346 1.083-.879 1.238.768.033 1.473.885.879 1.6-.663.797-2.815.51-4.059.453-.004-.316.423-.203.606-.332a31.92 31.92 0 0 0 0-3.109c-.135-.178-.585-.04-.606-.332zm1.757 3.471c.811.304 1.47-.351 1.211-1.087-.142-.404-.755-.455-1.211-.423v1.51zm0-1.841c.858.334 1.517-.616 1.03-1.177-.183-.211-.604-.236-1-.181-.071.392-.01.915-.03 1.358zm6.723-1.781c1.405-.137 2.152.536 2.09 1.931h-2.695c.038.68.172 1.141.636 1.389.55.295 1.367.169 2.029.181.071.341-.336.363-.515.423-1.553.515-3.64 0-3.422-2.113.103-1.006.921-1.718 1.877-1.811zm.818 1.539c-.055-.437-.014-.873-.273-1.056-.57-.404-1.153.392-1.12 1.056h1.393zm4.392-10.353c.694-.551 1.131-1.919 1.514-2.837 2.967-7.118 6.056-14.45 8.995-21.46.655-.042 1.336-.218 1.908-.241 2.47 6.847 5.263 14.267 7.784 21.339.41 1.152.786 2.679 1.635 3.291.676.486 1.701.554 2.483.845-.009.291.054.509.031.814a184.949 184.949 0 0 0-9.48 0c-.05-.241-.038-.545-.091-.784.558-.375 2.176-.293 2.423-.996.209-.594-.229-1.556-.423-2.113-.659-1.886-1.421-3.95-2.03-5.705h-8.904c-.709 1.737-1.556 3.764-2.271 5.734-.209.575-.696 1.471-.485 2.053.255.708 1.779.61 2.393.997-.012.293.009.553.03.814-2.631-.068-5.402-.091-8.026 0a5.955 5.955 0 0 1-.091-.814c.819-.318 1.93-.4 2.605-.937zm14.144-9.567c-1.236-3.357-2.391-6.793-3.635-10.142-1.306 3.417-2.675 6.772-3.997 10.172 2.533-.02 5.148.04 7.632-.03zm-11.419 18.593c-.158.344-.064 1.263-.363 1.297-.297.033-.31-.897-.454-1.056-1.082-.235-1.459.901-1.363 1.841.109 1.064 1.109 1.396 2.211 1.177.108.281-.23.39-.394.453-1.262.483-2.962-.02-3.12-1.418-.215-1.926 1.578-2.998 3.483-2.294zm4.119-.091c.162.001.404-.072.485.091.012.263-.345.158-.485.271-.065.628-.013 1.375-.03 2.052.293-.238.536-.609.818-.936.267-.307.701-.581.727-1.086-.111-.172-.539-.027-.515-.333.627-.117 1.625-.06 2.332-.029.105.36-.451.204-.606.392-.044.986-.032 2 0 2.988.106.237.642.045.637.393-.627.119-1.626.061-2.333.03-.002-.048.015-.115-.03-.121.072-.179.403-.101.515-.241v-2.143c-.349.312-.749.858-1.151 1.327-.214.25-.505.376-.364.816.13.162.536.05.515.362-.716.05-1.646.05-2.362 0-.041-.362.43-.217.605-.362a30.4 30.4 0 0 0 0-3.049c-.137-.134-.424-.12-.605-.211v-.211c.5.002 1.265-.003 1.847 0zm7.845.059c.004.277-.402.144-.515.303v1.237h1.483v-1.207c-.12-.201-.59-.055-.545-.422h1.878c.179 0 .413-.067.515.089-.025.298-.49.157-.636.333.02 1.006-.04 2.092.03 3.049.121.202.625.021.606.362-.636.119-1.646.061-2.362.03-.057-.348.371-.214.514-.362v-1.48h-1.453c-.071.423-.011.977-.03 1.45.087.204.554.031.515.362-.637.119-1.647.061-2.363.03-.04-.362.429-.217.606-.362.05-.957.051-2.122 0-3.079-.138-.134-.425-.12-.606-.212v-.21h1.848c.171 0 .426-.072.515.089zm7.42 1.54c.267-1.307-1.086-1.311-1.939-.996-.039-.112-.097-.205-.121-.332 1.199-.589 3.209-.689 3.241.906.006.294-.031.704-.031 1.116 0 .358-.086.841.031 1.087.117.247.463.093.605.332-.084.155-.478.246-.787.272-.488.042-.861-.089-.969-.423-.511.536-1.819.568-2.272 0-.421-.528-.179-1.337.303-1.63.521-.315 1.213-.306 1.939-.332zm-.031 1.691v-1.299c-.433.049-.817.024-1.029.242-.593.609.279 1.64 1.029 1.057zm-55.09-3.199v-.121c1.222.063 2.614.002 3.785.03.033.354-.418.228-.605.362a29.785 29.785 0 0 0 0 3.018c.195.067.512.012.757.03-.085.67-.115 1.395-.272 1.993-.093-.023-.09.051-.183.03-.228-.427-.262-1.047-.393-1.57h-2.968c-.107.23-.143.56-.212.875-.057.26-.04.683-.364.695-.214-.562-.2-1.35-.303-2.023h.546c.569-.71.844-1.874.908-2.988-.141-.201-.598-.087-.696-.331zm.393 3.319h1.575v-2.957h-.756c-.131 1.128-.398 2.119-.819 2.957zM77.673 47.902c.057 2.599.163 5.463.515 7.939.055.382.03.821.152 1.057.181.352 1.022.479 1.423.603.573.176 1.019.316 1.545.453.003.278.05.513.03.814a182.694 182.694 0 0 0-9.48 0c-.023-.252-.084-.615-.06-.814.467-.106.892-.274 1.393-.423.382-.114 1.065-.184 1.272-.513.121-.192.148-.695.212-1.027.198-1.031.26-2.362.364-3.35.171-1.638.219-3.171.242-4.678-4.714-.242-7.73-2.027-9.813-4.919-1.912-2.656-2.978-7.376-1.969-11.983 1.325-6.048 5.867-8.73 9.238-12.828.522-.634 1.072-1.328 1.544-2.143.438-.754.931-1.965.848-2.898.703.288 1.648 1.157 2.241 1.661 2.801 2.373 5.5 4.877 7.844 7.636.598.702 1.113 1.452 1.636 2.234 1.04 1.554 2.015 3.212 2.574 5.13 1.327 4.546.12 9.681-1.786 12.556-2.07 3.122-5.186 5.091-9.965 5.493zm8.995-16.69c-.332-1.622-1.03-3.024-1.696-4.437-.655-1.393-1.484-2.65-2.362-3.773-1.817-2.325-3.897-4.415-6.209-6.067-.007-.023-.025-.035-.06-.03-.424 1.4-1.45 2.686-2.363 3.773a82.758 82.758 0 0 1-2.846 3.2c-.962 1.031-1.902 2.1-2.666 3.379-.753 1.264-1.481 2.614-1.847 4.197-.414 1.785-.4 3.859-.212 5.583.195 1.785.803 3.27 1.575 4.467.804 1.248 1.682 2.358 2.907 3.139 1.218.776 2.668 1.299 4.513 1.54.315-1.847-.653-2.821-1.212-3.985.57.398.878 1.057 1.575 1.329.229-1.259.241-2.875.333-4.226.033-.484.015-.996.243-1.298.383.431.391 1.2.484 1.901.096.722.164 1.454.485 1.932.478-.43.828-1.147 1.423-1.358-.342.729-.861 1.472-1.06 2.414-.21.997-.002 2.133-.03 3.32 5.245-.873 8.21-4.027 9.025-9.356.265-1.726.38-3.797 0-5.644zM62.893 54.875c-.049.957-.05 2.122 0 3.079.152.181.625.041.637.362-.637.119-1.647.061-2.363.03-.056-.348.376-.21.515-.362v-1.208c-.568-.22-.712.365-.909.755-.319.635-.452.925-1.453.905-.173-.003-.436.062-.515-.12-.001-.166.286-.17.394-.242.459-.306.573-1.069.939-1.479-.432-.211-.811-.42-.818-.996-.019-1.57 2.713-1.012 4.179-1.086.042.363-.423.222-.606.362zm-1.211.03c-.892-.369-1.406.822-.909 1.328.208.211.516.153.909.181v-1.509zM46.661 36.343c-.079 2.431 0 5.358 0 7.998 0 .385-.034.856.06 1.086.142.352 1.052.522 1.423.635.594.18 1.04.304 1.575.453.004.277.05.513.031.814a182.694 182.694 0 0 0-9.48 0c-.024-.251-.085-.615-.061-.814.399-.098.904-.266 1.424-.424.416-.125 1.104-.216 1.272-.542.114-.222.091-.816.091-1.328v-19.71c0-.479.026-1.055-.091-1.298-.155-.32-.864-.443-1.272-.573-.53-.168-1.065-.306-1.394-.452-.055-.202-.026-.633-.03-.785 2.982.109 5.926.103 8.814-.031 4.919-.228 8.806.782 9.964 4.437.387 1.223.414 2.811.151 4.226-.967 5.212-5.896 7.028-12.477 6.308zm7.026-12.133c-1.394-1.272-4.385-1.63-7.057-1.208v11.771c.909.142 1.718.25 2.665.241 2.949-.027 4.885-1.273 5.603-3.56.763-2.431.381-5.791-1.211-7.244zM40.118 54.784c1.468-.952 3.168-.1 2.968 1.841-.14 1.364-1.278 2.022-2.937 1.842-.094.465.029.977 0 1.479.125.237.698.029.696.392-.698.118-1.765.061-2.544.03-.039-.361.42-.226.606-.362.063-1.593.028-3.321 0-4.92-.153-.139-.548-.037-.606-.271.007-.19.275-.131.394-.151.41-.072.9-.178 1.332-.272.181-.019.053.27.091.392zm0 3.23c.526.072.926.107 1.242-.151.572-.468.69-2.262-.03-2.747-.316-.212-.736-.193-1.212 0v2.898zm-8.056-11.047c-1.856-1.103-3.004-3.565-4.149-5.614-.835-1.495-1.696-3.154-2.695-4.648-.322-.48-.689-1.099-1.121-1.298-.805-.371-2.27-.033-3.271-.151-.076 2.746-.016 6.158 0 9.115.002.442-.037.937.091 1.207.16.337.758.465 1.121.574.476.143.894.236 1.332.363.022.269.043.541.061.814a164.614 164.614 0 0 0-9.026 0c.007-.297-.049-.533-.06-.814.401-.117.891-.23 1.423-.393.384-.117 1.1-.262 1.272-.544.135-.22.071-.802.091-1.327.123-3.27.03-6.553.03-9.87 0-3.294.121-6.587-.03-9.9-.021-.468.042-1.074-.091-1.298-.178-.3-.871-.417-1.272-.543-.528-.167-1.023-.331-1.393-.423.023-.274-.035-.468-.03-.724-.003-.043-.005-.085.03-.09 2.95.098 6.025.115 8.965 0 .021.28.067.536.091.814-.459.128-.845.235-1.363.393-.32.097-1.039.25-1.181.543-.123.253-.044.859-.061 1.267-.124 2.932.03 6.34-.03 9.176 1.959.067 4.032.111 5.148-.483 1.694-.902 2.345-3.459 2.878-5.493.273-1.046.569-2.192.908-3.29.323-1.045.733-2.349 1.726-2.717.7-.258 1.733-.18 2.757-.18.965 0 1.959.088 2.756.151.002.4.058.746.06 1.146-3.436-.05-4.618 2.316-5.663 4.649-1.07 2.385-2.065 4.822-4.028 6.248 1.537 2.245 2.985 4.766 4.452 7.183.717 1.181 1.454 2.432 2.301 3.531.849 1.102 1.931 2.005 3.574 2.234.014.277.035.549.061.815-1.979.276-4.409.323-5.664-.423zm-14.901 7.637c-.158.344-.064 1.263-.363 1.297-.297.033-.311-.897-.454-1.056-1.082-.235-1.46.901-1.363 1.841.109 1.064 1.108 1.396 2.211 1.177.109.281-.23.39-.394.453-1.262.483-2.962-.02-3.119-1.418-.217-1.926 1.577-2.998 3.482-2.294zm4.089-.212c1.405-.137 2.151.536 2.09 1.931h-2.696c.038.68.173 1.141.636 1.389.55.295 1.367.169 2.03.181.071.341-.336.363-.515.423-1.553.515-3.64 0-3.423-2.113.103-1.006.922-1.718 1.878-1.811zm.818 1.539c-.056-.437-.014-.873-.273-1.056-.57-.404-1.153.392-1.12 1.056h1.393zm3.513-1.388c.018-.165.244-.087.333-.091 1.135-.046 3.426-.264 3.726.573.235.658-.346 1.083-.879 1.238.768.033 1.472.885.879 1.6-.663.797-2.815.51-4.059.453-.005-.316.422-.203.606-.332a31.92 31.92 0 0 0 0-3.109c-.135-.178-.585-.04-.606-.332zm1.757 3.471c.811.304 1.47-.351 1.211-1.087-.142-.404-.756-.455-1.211-.423v1.51zm0-1.841c.858.334 1.517-.616 1.029-1.177-.183-.211-.603-.236-.999-.181-.071.392-.01.915-.03 1.358zm6.723-1.781c1.405-.137 2.151.536 2.09 1.931h-2.696c.039.68.173 1.141.636 1.389.55.295 1.367.169 2.03.181.071.341-.336.363-.515.423-1.553.515-3.64 0-3.423-2.113.104-1.006.922-1.718 1.878-1.811zm.818 1.539c-.056-.437-.014-.873-.273-1.056-.57-.404-1.153.392-1.121 1.056h1.394zm12.841-1.359c.004.277-.401.144-.515.303v1.237h1.485v-1.207c-.122-.201-.591-.055-.546-.422h1.878c.179 0 .413-.067.515.089-.025.298-.49.157-.636.333.02 1.006-.04 2.092.03 3.049.121.202.625.021.606.362-.637.119-1.647.061-2.362.03-.058-.348.37-.214.515-.362v-1.48h-1.455c-.07.423-.01.977-.03 1.45.088.204.554.031.515.362-.636.119-1.646.061-2.362.03-.04-.362.429-.217.606-.362.05-.957.051-2.122 0-3.079-.138-.134-.425-.12-.606-.212v-.21h1.847c.171 0 .426-.072.515.089zm7.421 1.54c.267-1.307-1.086-1.311-1.939-.996-.039-.112-.097-.205-.121-.332 1.199-.589 3.209-.689 3.241.906.005.294-.031.704-.031 1.116 0 .358-.086.841.031 1.087.117.247.463.093.605.332-.085.155-.479.246-.787.272-.488.042-.861-.089-.969-.423-.512.536-1.819.568-2.272 0-.421-.528-.179-1.337.303-1.63.521-.315 1.213-.306 1.939-.332zm-.031 1.691v-1.299c-.433.049-.818.024-1.029.242-.593.609.278 1.64 1.029 1.057z"/>
</svg>
