<?xml version="1.0" encoding="utf-8"?>
<!-- Generator: Adobe Illustrator 23.0.2, SVG Export Plug-In . SVG Version: 6.00 Build 0)  -->
<svg version="1.1" id="Group_1_copy_1_" xmlns="http://www.w3.org/2000/svg" xmlns:xlink="http://www.w3.org/1999/xlink" x="0px"
	 y="0px" viewBox="0 0 1262.4 560.16" style="enable-background:new 0 0 1262.4 560.16;" xml:space="preserve">
<style type="text/css">
	.st0{fill:#F5F3DC;}
	.st1{fill:#3B3931;}
	.st2{fill-rule:evenodd;clip-rule:evenodd;fill:#3B3931;}
	.st3{enable-background:new    ;}
	.st4{fill:#3C876A;}
	.st5{fill:#378467;}
</style>
<g>
	<path class="st0" d="M1261.68,520.16c0,0-224.6,40-630.48,40c-403.56,0-630.48-40-630.48-40V60c0,0,226.92-60,630.48-60
		c403.25,0,630.48,60,630.48,60V520.16z"/>
	<path class="st1" d="M631.2,18c91.32,0,181.04,3.12,266.69,9.28c68.52,4.93,134.59,11.8,196.38,20.42
		c75.94,10.6,126.79,21.29,149.41,26.48v430.65c-23.09,3.54-72.77,10.49-146.71,17.41c-97.14,9.09-256.8,19.92-465.77,19.92
		c-207.45,0-366.97-10.8-464.27-19.86c-74.51-6.94-124.88-13.94-148.21-17.49V74.18c22.61-5.19,73.4-15.88,149.3-26.48
		c61.77-8.62,127.84-15.49,196.37-20.42C450.04,21.12,539.81,18,631.2,18 M631.2,0C227.64,0,0.72,60,0.72,60v460.16
		c0,0,226.92,40,630.48,40c405.88,0,630.48-40,630.48-40V60C1261.68,60,1034.45,0,631.2,0L631.2,0z"/>
</g>
<g id="КРОНА_copy">
	<g>
		<path class="st2" d="M289.15,351.13c-1.96-0.59-3.82-1.3-5.58-2.13c-1.76-0.83-3.48-1.84-5.14-3.01
			c-1.67-1.18-3.38-2.59-5.14-4.26c-3.33-3.33-6.93-7.93-10.8-13.81s-8.15-12.68-12.85-20.42c-4.99-8.32-10.43-17.43-16.3-27.32
			c-5.88-9.89-12.34-20.02-19.39-30.4c3.53-2.45,6.73-5.38,9.62-8.81s5.56-7.17,8.01-11.24c2.45-4.06,4.75-8.35,6.9-12.85
			s4.26-9.06,6.32-13.66c2.74-6.27,5.41-11.87,8.01-16.82c2.59-4.94,5.58-9.11,8.96-12.49s7.39-5.97,12.04-7.78
			s10.36-2.81,17.11-3.01l-0.59-9.11c-9.6-0.78-18.56-1.18-26.88-1.18c-4.02,0-7.44,0.1-10.28,0.29c-2.84,0.2-5.29,0.76-7.34,1.69
			c-2.06,0.93-3.87,2.4-5.43,4.41c-1.57,2.01-3.08,4.8-4.55,8.37c-1.47,3.58-2.96,8.1-4.48,13.59c-1.52,5.49-3.26,12.14-5.21,19.98
			c-1.96,7.54-3.87,13.95-5.73,19.24c-1.86,5.29-3.84,9.74-5.95,13.37c-2.11,3.62-4.36,6.49-6.76,8.59
			c-2.4,2.11-5.09,3.72-8.08,4.85s-6.27,1.84-9.84,2.13c-3.58,0.29-7.61,0.44-12.12,0.44h-15.42v-56.26c0-4.8,0.02-9.25,0.07-13.37
			c0.05-4.11,0.12-7.93,0.22-11.46c0.1-2.45,1.37-3.97,3.82-4.55l16.74-5.14l-0.73-6.32c-5.88,0.2-11.68,0.34-17.41,0.44
			c-5.73,0.1-11.53,0.15-17.41,0.15s-11.8-0.05-17.77-0.15c-5.97-0.1-12.19-0.24-18.65-0.44l0.29,6.32l18.21,5.73
			c2.25,0.78,3.43,2.45,3.53,4.99c0.1,3.23,0.17,6.86,0.22,10.87c0.05,4.02,0.07,8.52,0.07,13.51v119.12
			c0,5.88-0.03,11.24-0.07,16.08c-0.05,4.85-0.12,9.23-0.22,13.15c-0.2,2.35-1.52,3.87-3.97,4.55l-18.07,5.43l0.59,6.32
			c12.43-0.29,24.58-0.44,36.43-0.44c11.65,0,23.3,0.15,34.96,0.44l-0.44-6.32l-16.3-4.85c-2.45-0.78-3.72-2.69-3.82-5.73
			c-0.1-3.82-0.17-8.08-0.22-12.78s-0.07-9.99-0.07-15.86v-50.53h18.51c2.25,0,4.09,0.17,5.51,0.51s2.69,0.93,3.82,1.76
			c1.12,0.83,2.18,1.96,3.16,3.38c0.98,1.42,2.15,3.16,3.53,5.21c4.7,7.15,9.03,14.39,13,21.74c3.97,7.34,7.86,14.39,11.68,21.15
			c4.7,8.62,9.2,16.11,13.51,22.47c4.31,6.37,8.67,11.16,13.07,14.39c1.76,1.47,3.6,2.67,5.51,3.6c1.91,0.93,4.06,1.69,6.46,2.28
			s5.12,0.98,8.15,1.18c3.03,0.2,6.56,0.29,10.58,0.29c4.7,0,10.58-0.44,17.63-1.32l-0.44-6.46
			C293.36,352.31,291.11,351.72,289.15,351.13z M449.69,165.69c-11.9-9.06-29.44-13.59-52.63-13.59c-6.22,0-13.1,0.2-20.66,0.59
			c-7.55,0.39-15.37,0.59-23.47,0.59c-12.03,0-24.35-0.2-36.98-0.59l0.29,6.32l18.21,5.73c2.25,0.78,3.43,2.45,3.53,4.99
			c0.1,3.23,0.17,6.86,0.22,10.87c0.05,4.02,0.07,8.52,0.07,13.51v119.12c0,5.88-0.03,11.24-0.07,16.08
			c-0.05,4.85-0.12,9.23-0.22,13.15c-0.1,2.25-1.42,3.77-3.97,4.55l-18.07,5.43l0.59,6.32c12.43-0.29,24.58-0.44,36.43-0.44
			c11.65,0,24.58,0.15,38.78,0.44l-0.29-6.32l-20.27-6.17c-2.45-0.78-3.72-2.3-3.82-4.55c-0.1-3.72-0.17-7.93-0.22-12.63
			s-0.07-9.99-0.07-15.86v-41.86c7.81,0.88,15.14,1.32,21.96,1.32c24.83,0,44.12-5.82,57.88-17.48c13.75-11.65,20.63-28,20.63-49.06
			C467.54,188.24,461.59,174.75,449.69,165.69z M423.1,248.68c-8.18,8.08-20.1,12.12-35.77,12.12c-6.66,0-13.42-0.59-20.27-1.76
			v-93.71c6.66-0.78,13.27-1.17,19.83-1.17c16.74,0,29.01,3.92,36.79,11.75c7.78,7.84,11.68,19.73,11.68,35.69
			C435.37,228.24,431.28,240.6,423.1,248.68z M925.95,169.73c0.1-2.55,1.27-4.21,3.53-4.99l18.51-5.73l-0.59-6.32
			c-12.24,0.39-24.19,0.59-35.84,0.59s-23.45-0.2-35.4-0.59l0.29,6.32l16.3,5.14c2.45,0.59,3.72,2.11,3.82,4.55
			c0.2,7.05,0.29,15.33,0.29,24.82v49.79H789.94v-49.79c0-9.5,0.1-17.77,0.29-24.82c0.1-2.45,1.37-3.97,3.82-4.55l16.74-5.14
			l-0.73-6.32c-11.46,0.39-23.06,0.59-34.81,0.59c-11.65,0-23.8-0.2-36.43-0.59l0.29,6.32l18.21,5.73c2.25,0.78,3.43,2.45,3.53,4.99
			c0.2,6.46,0.29,14.59,0.29,24.38v119.12c0,11.56-0.1,21.3-0.29,29.23c-0.1,2.25-1.42,3.77-3.97,4.55l-18.07,5.43l0.59,6.32
			c12.63-0.29,24.77-0.44,36.43-0.44c11.65,0,23.3,0.15,34.96,0.44l-0.44-6.32l-16.3-5.14c-2.45-0.68-3.72-2.35-3.82-4.99
			c-0.2-7.83-0.29-17.53-0.29-29.08v-56.55h106.93v56.55c0,11.56-0.1,21.25-0.29,29.08c-0.1,2.64-1.37,4.31-3.82,4.99l-16.6,5.14
			l0.59,6.32c11.16-0.29,22.57-0.44,34.22-0.44c11.75,0,24.09,0.15,37.01,0.44l-0.29-6.32l-17.77-5.43
			c-2.55-0.78-3.87-2.3-3.97-4.55c-0.2-7.93-0.29-17.67-0.29-29.23V194.12C925.66,184.32,925.75,176.2,925.95,169.73z
			 M1182.47,352.46l-13.81-4.11c-3.72-1.18-6.59-2.96-8.59-5.36c-2.01-2.4-4.24-6.98-6.68-13.73l-65.22-179.64l-15.13,2.2
			l-75.06,179.2c-2.16,5.19-4.11,9.01-5.88,11.46c-1.76,2.45-4.51,4.26-8.23,5.43l-14.84,4.55l0.73,6.32
			c10.87-0.29,20.71-0.44,29.52-0.44s20.17,0.15,34.08,0.44l-0.29-6.61l-13.66-3.97c-1.86-0.59-3.26-1.3-4.19-2.13
			c-0.93-0.83-1.4-2.08-1.4-3.75c0-1.86,0.59-4.41,1.76-7.64c1.18-3.23,2.79-7.59,4.85-13.07l15.42-39.22h70.8l13.81,39.36
			c1.86,5.29,3.3,9.52,4.33,12.71c1.03,3.18,1.54,5.75,1.54,7.71c0,1.76-0.42,3.06-1.25,3.89c-0.83,0.83-2.23,1.59-4.19,2.28
			l-13.95,4.11l0.59,6.32c15.18-0.29,28.35-0.44,39.51-0.44c10.97,0,22.86,0.15,35.69,0.44L1182.47,352.46z M1041.31,269.03
			l31.87-80.93l28.64,80.93H1041.31z"/>
	</g>
</g>
<g id="северная_______древесина">
	<g class="st3">
		<path class="st4" d="M133.84,444.41c-3.67,2.08-7.47,3.12-11.39,3.12c-4.85,0-8.83-1.41-11.95-4.22
			c-3.12-2.81-4.68-6.56-4.68-11.26c0-5.11,1.7-9.25,5.1-12.42c3.4-3.17,7.73-4.75,13-4.75c3.34,0,6.56,0.63,9.66,1.89
			c-0.8,3.12-1.49,6.4-2.09,9.83l-1.83,0.3l-2.56-8.3c-0.6-0.22-1.41-0.33-2.42-0.33c-2.52,0-4.59,1.1-6.21,3.3
			c-1.62,2.2-2.42,5.15-2.42,8.85c0,4.32,1.02,7.5,3.07,9.55c2.05,2.05,4.96,3.07,8.75,3.07c1.81,0,3.72-0.21,5.71-0.63
			L133.84,444.41z"/>
		<path class="st4" d="M181.72,444.41c-4.1,2.08-8.41,3.12-12.95,3.12c-5.4,0-9.81-1.33-13.23-4c-3.42-2.67-5.13-6.6-5.13-11.8
			c0-4.96,1.64-9,4.93-12.14c3.29-3.13,7.48-4.7,12.57-4.7c4.45,0,7.89,1.2,10.31,3.6c2.42,2.4,3.64,5.72,3.64,9.94
			c0,0.64-0.03,1.31-0.1,1.99h-21.22c0,4.45,1.09,7.65,3.27,9.6c2.18,1.95,5.76,2.92,10.74,2.92c2.41,0,4.71-0.21,6.91-0.63
			L181.72,444.41z M171.76,427.22v-0.8c0-3.01-0.38-5.17-1.15-6.47c-0.76-1.31-1.93-1.96-3.5-1.96c-1.88,0-3.38,0.9-4.5,2.71
			c-1.12,1.8-1.77,3.98-1.94,6.52H171.76z"/>
		<path class="st4" d="M207.43,446.61c-2.3,0-5.05,0.03-8.23,0.1l-0.17-1.59l4.22-1.2c0.53-0.18,0.81-0.51,0.83-1
			c0.02-0.44,0.04-1.02,0.05-1.73c0.01-0.71,0.02-1.6,0.02-2.69v-13.75c0-1.35-0.01-2.48-0.02-3.4c-0.01-0.92-0.03-1.63-0.05-2.14
			c-0.04-0.6-0.32-0.98-0.83-1.16l-4.18-1.2l-0.1-1.59c3.25,0.07,6.1,0.1,8.53,0.1c0.8,0,2.43-0.05,4.91-0.15
			c2.48-0.1,4.24-0.15,5.28-0.15c4.6,0,8.06,0.62,10.36,1.86c2.3,1.24,3.45,3.02,3.45,5.35c0,3.5-2.59,5.98-7.77,7.44v0.1
			c6.04,1.02,9.06,3.6,9.06,7.74c0,2.92-1.42,5.2-4.27,6.82c-2.84,1.63-6.87,2.44-12.07,2.44c-1.15,0-2.53-0.03-4.15-0.1
			C210.69,446.64,209.07,446.61,207.43,446.61z M212.97,429.21c0.51,0.02,1.01,0.03,1.49,0.03c0.49,0,0.95,0,1.39,0
			c2.08,0,3.65-0.49,4.71-1.46c1.06-0.97,1.59-2.4,1.59-4.28c0-1.99-0.53-3.42-1.59-4.3c-1.06-0.87-2.62-1.31-4.68-1.31
			c-1.15,0-2.13,0.04-2.92,0.13V429.21z M212.97,431.73v11.99c0.38,0.11,0.84,0.19,1.39,0.25c0.55,0.06,1.14,0.08,1.76,0.08
			c2.21,0,3.9-0.53,5.06-1.59s1.74-2.62,1.74-4.68c0-2.08-0.59-3.62-1.78-4.62c-1.18-1-3.09-1.49-5.73-1.49
			c-0.38,0-0.77,0.01-1.2,0.02C213.81,431.69,213.39,431.71,212.97,431.73z"/>
		<path class="st4" d="M282.01,444.41c-4.1,2.08-8.41,3.12-12.95,3.12c-5.4,0-9.81-1.33-13.23-4c-3.42-2.67-5.13-6.6-5.13-11.8
			c0-4.96,1.64-9,4.93-12.14c3.29-3.13,7.48-4.7,12.57-4.7c4.45,0,7.89,1.2,10.31,3.6c2.42,2.4,3.64,5.72,3.64,9.94
			c0,0.64-0.03,1.31-0.1,1.99h-21.22c0,4.45,1.09,7.65,3.27,9.6c2.18,1.95,5.76,2.92,10.74,2.92c2.41,0,4.71-0.21,6.91-0.63
			L282.01,444.41z M272.05,427.22v-0.8c0-3.01-0.38-5.17-1.15-6.47c-0.76-1.31-1.93-1.96-3.5-1.96c-1.88,0-3.38,0.9-4.5,2.71
			c-1.12,1.8-1.77,3.98-1.94,6.52H272.05z"/>
		<path class="st4" d="M298.71,418.68l-0.2-1.36c5.11-0.75,9.79-1.59,14.04-2.52l0.5,0.27v3.12c3.43-2.19,6.74-3.29,9.93-3.29
			c4.16,0,7.46,1.38,9.91,4.13c2.45,2.76,3.67,6.36,3.67,10.81c0,5.51-1.72,9.84-5.16,12.98c-3.44,3.14-7.99,4.71-13.63,4.71
			c-1.51,0-3.08-0.16-4.71-0.46v7.01c0,2.19,0.02,3.73,0.07,4.62c0.04,0.69,0.34,1.1,0.9,1.23l4.68,1.23l0.1,1.59
			c-3.67-0.07-7.13-0.1-10.36-0.1c-3.32,0-6.57,0.03-9.76,0.1l-0.17-1.59l4.18-1.16c0.53-0.13,0.81-0.46,0.83-1
			c0.04-1.64,0.07-4.1,0.07-7.37v-13.25c0-9.65-0.04-15.8-0.13-18.46L298.71,418.68z M313.06,443.75c1.55,0.33,3.04,0.5,4.48,0.5
			c2.92,0,5.14-1.12,6.64-3.35c1.5-2.24,2.26-5.43,2.26-9.6c0-3.92-0.71-6.88-2.13-8.88c-1.42-2-3.46-3-6.14-3
			c-1.93,0-3.63,0.37-5.11,1.1V443.75z"/>
		<path class="st4" d="M389.86,442.82c0.04,0.6,0.32,0.97,0.83,1.13l4.15,1.16l0.1,1.59c-3.28-0.07-6.53-0.1-9.76-0.1
			c-3.25,0-6.2,0.03-8.83,0.1l-0.17-1.59l3.35-1c0.51-0.15,0.79-0.49,0.83-1c0.04-0.86,0.07-2.31,0.07-4.35v-6.91h-12.09v5.61
			c0,2.66,0.02,4.49,0.07,5.51c0.04,0.6,0.32,0.97,0.83,1.13l3.29,1l0.1,1.59c-2.7-0.07-5.64-0.1-8.83-0.1
			c-3.3,0-6.55,0.03-9.76,0.1l-0.17-1.59l4.22-1.16c0.51-0.15,0.79-0.49,0.83-1c0.04-0.86,0.07-2.31,0.07-4.35v-13.58
			c0-2.63-0.02-4.46-0.07-5.48c-0.04-0.6-0.32-0.97-0.83-1.13l-4.18-1.16l-0.1-1.59c3.28,0.07,6.53,0.1,9.76,0.1
			c3.25,0,6.2-0.03,8.83-0.1l0.17,1.59l-3.32,0.96c-0.51,0.18-0.79,0.52-0.83,1.03c-0.04,0.86-0.07,2.31-0.07,4.35v5.11h12.09v-3.82
			c0-2.66-0.02-4.49-0.07-5.51c-0.04-0.6-0.32-0.98-0.83-1.16l-3.32-0.96l-0.1-1.59c2.7,0.07,5.64,0.1,8.83,0.1
			c3.3,0,6.55-0.03,9.76-0.1l0.17,1.59l-4.18,1.16c-0.51,0.16-0.79,0.49-0.83,1c-0.04,0.86-0.07,2.31-0.07,4.35v13.55
			C389.8,439.94,389.82,441.78,389.86,442.82z"/>
		<path class="st4" d="M414.44,418.12c4.71-2.15,9.25-3.22,13.61-3.22c3.98,0,6.97,0.89,8.95,2.67c1.98,1.78,2.96,4.34,2.94,7.69
			l-0.17,13.81c-0.04,1.13-0.02,2.04,0.07,2.72c0.09,0.69,0.29,1.21,0.61,1.58c0.32,0.37,0.8,0.63,1.43,0.78
			c0.63,0.16,1.54,0.24,2.74,0.27l0.2,1.53c-3.1,1.06-5.77,1.59-8,1.59c-3.01,0-4.99-1.18-5.94-3.55c-2.81,2.37-5.79,3.55-8.93,3.55
			c-3.08,0-5.61-0.77-7.6-2.31s-2.99-3.7-2.99-6.49c0-3.47,1.61-6.02,4.83-7.64c3.22-1.62,8.05-2.42,14.49-2.42l0.03-2.49
			c0.02-2.37-0.55-4.11-1.71-5.23c-1.16-1.12-2.97-1.68-5.43-1.68c-2.28,0-5.01,0.5-8.2,1.49L414.44,418.12z M430.67,431.83
			c-3.48,0-5.95,0.44-7.44,1.33c-1.48,0.89-2.22,2.4-2.22,4.55c0,1.95,0.53,3.34,1.58,4.17c1.05,0.83,2.3,1.25,3.74,1.25
			c1.64,0,3.07-0.42,4.28-1.26L430.67,431.83z"/>
		<path class="st4" d="M482.15,433.62h-2.92c-0.53,0-0.94,0.14-1.21,0.42c-0.28,0.28-0.57,0.66-0.88,1.15
			c-0.58,0.93-1.11,1.87-1.59,2.82c-0.49,0.95-0.97,1.92-1.46,2.89c-0.58,1.11-1.15,2.11-1.73,3c-0.58,0.9-1.16,1.56-1.76,1.98
			c-0.33,0.2-0.65,0.37-0.95,0.51c-0.3,0.14-0.64,0.25-1.01,0.33c-0.38,0.08-0.8,0.14-1.26,0.18c-0.46,0.04-1.02,0.07-1.66,0.07
			c-2.3,0-4.47-0.1-6.51-0.3l-0.13-1.49c0.86-0.18,1.59-0.37,2.19-0.58c0.6-0.21,1.17-0.58,1.73-1.11c0.58-0.62,1.16-1.41,1.76-2.36
			c0.6-0.95,1.22-2.01,1.86-3.19c0.49-0.91,0.98-1.82,1.48-2.74c0.5-0.92,1.08-1.91,1.74-2.97c-4.32-1.44-6.47-4.05-6.47-7.84
			c0-2.88,1.29-5.07,3.87-6.59c2.58-1.52,6.03-2.27,10.34-2.27c1.24,0,2.73,0.04,4.47,0.12c1.74,0.08,3.21,0.12,4.43,0.12
			c2.55,0,5.81-0.03,9.79-0.1l0.2,1.59l-4.38,1.2c-0.44,0.18-0.66,0.51-0.66,1c-0.02,0.44-0.04,1.02-0.05,1.73
			c-0.01,0.71-0.02,1.58-0.02,2.62v13.51c0,1.2,0.01,2.25,0.02,3.17c0.01,0.92,0.03,1.7,0.05,2.34c0.02,0.6,0.31,0.97,0.86,1.13
			l4.15,1.16l0.1,1.59c-3.28-0.07-6.51-0.1-9.7-0.1c-3.3,0-6.22,0.03-8.77,0.1l-0.17-1.59l3.35-1c0.53-0.18,0.81-0.51,0.83-1
			c0.02-0.22,0.04-0.59,0.05-1.11c0.01-0.52,0.02-1.3,0.02-2.34V433.62z M482.15,418.75c-0.73-0.09-1.55-0.13-2.46-0.13
			c-2.1,0-3.66,0.5-4.68,1.51c-1.02,1.01-1.53,2.61-1.53,4.8c0,2.17,0.5,3.72,1.49,4.67c1,0.94,2.69,1.41,5.08,1.41h2.09V418.75z"/>
		<path class="st4" d="M744.03,436.51c0,2.63,0.02,4.46,0.07,5.48c0.04,0.75,0.29,1.13,0.73,1.13h5.25l0.23,0.23l-1.89,15.51
			l-2.13,0.33l-2.72-12.58h-23.81l-2.62,12.25l-2.13,0.33l-1.93-15.84l0.23-0.23h4.28c0.55-0.62,1.13-1.48,1.73-2.57
			s1.17-2.36,1.71-3.79c0.54-1.43,1.03-2.92,1.48-4.48c0.44-1.56,0.82-3.1,1.13-4.62c0.31-1.52,0.56-2.97,0.76-4.35
			c0.2-1.38,0.33-2.62,0.4-3.7c0-0.58-0.29-0.94-0.86-1.1l-4.65-1.26l-0.1-1.59c3.47,0.07,6.5,0.1,9.06,0.1h11.85
			c2.68,0,5.62-0.03,8.83-0.1l0.17,1.59l-4.18,1.16c-0.51,0.16-0.79,0.49-0.83,1c-0.02,0.44-0.04,1.02-0.05,1.73
			c-0.01,0.71-0.02,1.58-0.02,2.62V436.51z M721.98,443.12h12.72v-23.84h-6.04c-0.27,2.06-0.58,4.13-0.95,6.23s-0.82,4.17-1.36,6.23
			c-0.54,2.06-1.17,4.06-1.89,5.99C723.74,439.66,722.91,441.46,721.98,443.12z"/>
		<path class="st4" d="M765.58,418.68l-0.2-1.36c5.11-0.75,9.79-1.59,14.04-2.52l0.5,0.27v3.12c3.43-2.19,6.74-3.29,9.93-3.29
			c4.16,0,7.46,1.38,9.91,4.13c2.45,2.76,3.67,6.36,3.67,10.81c0,5.51-1.72,9.84-5.16,12.98c-3.44,3.14-7.99,4.71-13.63,4.71
			c-1.51,0-3.08-0.16-4.71-0.46v7.01c0,2.19,0.02,3.73,0.07,4.62c0.04,0.69,0.34,1.1,0.9,1.23l4.68,1.23l0.1,1.59
			c-3.67-0.07-7.13-0.1-10.36-0.1c-3.32,0-6.57,0.03-9.76,0.1l-0.17-1.59l4.18-1.16c0.53-0.13,0.81-0.46,0.83-1
			c0.04-1.64,0.07-4.1,0.07-7.37v-13.25c0-9.65-0.04-15.8-0.13-18.46L765.58,418.68z M779.93,443.75c1.55,0.33,3.04,0.5,4.48,0.5
			c2.92,0,5.13-1.12,6.64-3.35c1.5-2.24,2.26-5.43,2.26-9.6c0-3.92-0.71-6.88-2.13-8.88c-1.42-2-3.46-3-6.14-3
			c-1.93,0-3.63,0.37-5.11,1.1V443.75z"/>
		<path class="st4" d="M852.98,444.41c-4.1,2.08-8.41,3.12-12.95,3.12c-5.4,0-9.81-1.33-13.23-4c-3.42-2.67-5.13-6.6-5.13-11.8
			c0-4.96,1.64-9,4.93-12.14c3.29-3.13,7.48-4.7,12.57-4.7c4.45,0,7.89,1.2,10.31,3.6c2.42,2.4,3.64,5.72,3.64,9.94
			c0,0.64-0.03,1.31-0.1,1.99H831.8c0,4.45,1.09,7.65,3.27,9.6c2.18,1.95,5.76,2.92,10.74,2.92c2.41,0,4.71-0.21,6.91-0.63
			L852.98,444.41z M843.02,427.22v-0.8c0-3.01-0.38-5.17-1.15-6.47c-0.76-1.31-1.93-1.96-3.5-1.96c-1.88,0-3.38,0.9-4.5,2.71
			c-1.12,1.8-1.77,3.98-1.94,6.52H843.02z"/>
		<path class="st4" d="M878.68,446.61c-2.3,0-5.05,0.03-8.23,0.1l-0.17-1.59l4.22-1.2c0.53-0.18,0.81-0.51,0.83-1
			c0.02-0.44,0.04-1.02,0.05-1.73c0.01-0.71,0.02-1.6,0.02-2.69v-13.75c0-1.35-0.01-2.48-0.02-3.4c-0.01-0.92-0.03-1.63-0.05-2.14
			c-0.04-0.6-0.32-0.98-0.83-1.16l-4.18-1.2l-0.1-1.59c3.25,0.07,6.1,0.1,8.53,0.1c0.8,0,2.43-0.05,4.91-0.15
			c2.48-0.1,4.24-0.15,5.28-0.15c4.6,0,8.06,0.62,10.36,1.86c2.3,1.24,3.45,3.02,3.45,5.35c0,3.5-2.59,5.98-7.77,7.44v0.1
			c6.04,1.02,9.06,3.6,9.06,7.74c0,2.92-1.42,5.2-4.27,6.82c-2.84,1.63-6.87,2.44-12.07,2.44c-1.15,0-2.54-0.03-4.15-0.1
			C881.95,446.64,880.32,446.61,878.68,446.61z M884.23,429.21c0.51,0.02,1.01,0.03,1.49,0.03c0.49,0,0.95,0,1.39,0
			c2.08,0,3.65-0.49,4.71-1.46c1.06-0.97,1.59-2.4,1.59-4.28c0-1.99-0.53-3.42-1.59-4.3c-1.06-0.87-2.62-1.31-4.68-1.31
			c-1.15,0-2.13,0.04-2.92,0.13V429.21z M884.23,431.73v11.99c0.38,0.11,0.84,0.19,1.39,0.25c0.55,0.06,1.14,0.08,1.76,0.08
			c2.21,0,3.9-0.53,5.06-1.59s1.74-2.62,1.74-4.68c0-2.08-0.59-3.62-1.78-4.62c-1.18-1-3.09-1.49-5.73-1.49
			c-0.38,0-0.78,0.01-1.2,0.02C885.07,431.69,884.65,431.71,884.23,431.73z"/>
		<path class="st4" d="M953.26,444.41c-4.1,2.08-8.41,3.12-12.95,3.12c-5.4,0-9.81-1.33-13.23-4c-3.42-2.67-5.13-6.6-5.13-11.8
			c0-4.96,1.64-9,4.93-12.14c3.29-3.13,7.48-4.7,12.57-4.7c4.45,0,7.89,1.2,10.31,3.6c2.42,2.4,3.64,5.72,3.64,9.94
			c0,0.64-0.03,1.31-0.1,1.99h-21.22c0,4.45,1.09,7.65,3.27,9.6c2.18,1.95,5.76,2.92,10.74,2.92c2.41,0,4.71-0.21,6.91-0.63
			L953.26,444.41z M943.3,427.22v-0.8c0-3.01-0.38-5.17-1.15-6.47c-0.76-1.31-1.93-1.96-3.5-1.96c-1.88,0-3.38,0.9-4.5,2.71
			c-1.12,1.8-1.77,3.98-1.94,6.52H943.3z"/>
		<path class="st4" d="M999.49,444.41c-3.67,2.08-7.47,3.12-11.39,3.12c-4.85,0-8.83-1.41-11.95-4.22
			c-3.12-2.81-4.68-6.56-4.68-11.26c0-5.11,1.7-9.25,5.1-12.42c3.4-3.17,7.73-4.75,13-4.75c3.34,0,6.56,0.63,9.66,1.89
			c-0.8,3.12-1.49,6.4-2.09,9.83l-1.83,0.3l-2.56-8.3c-0.6-0.22-1.41-0.33-2.42-0.33c-2.52,0-4.59,1.1-6.21,3.3
			c-1.62,2.2-2.42,5.15-2.42,8.85c0,4.32,1.02,7.5,3.07,9.55c2.05,2.05,4.96,3.07,8.75,3.07c1.81,0,3.72-0.21,5.71-0.63
			L999.49,444.41z"/>
		<path class="st4" d="M1030.9,443.05c0,0.6,0.29,0.99,0.86,1.16l3.19,0.9l0.1,1.59c-2.61-0.07-5.49-0.1-8.63-0.1
			c-3.3,0-6.55,0.03-9.76,0.1l-0.17-1.59l4.22-1.16c0.51-0.15,0.79-0.49,0.83-1c0.04-0.86,0.07-2.31,0.07-4.35v-13.38
			c0-2.63-0.02-4.47-0.07-5.51c-0.04-0.6-0.32-0.97-0.83-1.13l-4.18-1.16l-0.1-1.59c3.28,0.07,6.52,0.1,9.73,0.1
			c3.23,0,6.11-0.03,8.63-0.1l0.2,1.59l-3.19,0.9c-0.51,0.18-0.79,0.52-0.83,1.03c-0.04,0.86-0.07,2.31-0.07,4.35v11.85l12.42-14.58
			v-1.49c0-0.6-0.29-0.98-0.86-1.16l-3.19-0.9l-0.1-1.59c2.59,0.07,5.46,0.1,8.6,0.1c3.28,0,6.52-0.03,9.73-0.1l0.17,1.59
			l-4.18,1.16c-0.51,0.16-0.79,0.49-0.83,1c-0.04,0.86-0.07,2.32-0.07,4.38v13.35c0,2.81,0.02,4.65,0.07,5.51
			c0.04,0.6,0.32,0.97,0.83,1.13l4.15,1.16l0.1,1.59c-3.28-0.07-6.52-0.1-9.73-0.1c-3.23,0-6.11,0.03-8.63,0.1l-0.17-1.59l3.19-0.9
			c0.51-0.18,0.79-0.52,0.83-1.03c0.07-0.86,0.1-2.31,0.1-4.35v-12.98l-12.42,14.61V443.05z"/>
		<path class="st4" d="M1110.07,442.82c0.04,0.6,0.32,0.97,0.83,1.13l4.15,1.16l0.1,1.59c-3.28-0.07-6.53-0.1-9.76-0.1
			c-3.25,0-6.2,0.03-8.83,0.1l-0.17-1.59l3.35-1c0.51-0.15,0.79-0.49,0.83-1c0.04-0.86,0.07-2.31,0.07-4.35v-6.91h-12.09v5.61
			c0,2.66,0.02,4.49,0.07,5.51c0.04,0.6,0.32,0.97,0.83,1.13l3.29,1l0.1,1.59c-2.7-0.07-5.64-0.1-8.83-0.1
			c-3.3,0-6.55,0.03-9.76,0.1l-0.17-1.59l4.22-1.16c0.51-0.15,0.79-0.49,0.83-1c0.04-0.86,0.07-2.31,0.07-4.35v-13.58
			c0-2.63-0.02-4.46-0.07-5.48c-0.04-0.6-0.32-0.97-0.83-1.13l-4.18-1.16l-0.1-1.59c3.28,0.07,6.53,0.1,9.76,0.1
			c3.25,0,6.2-0.03,8.83-0.1l0.17,1.59l-3.32,0.96c-0.51,0.18-0.79,0.52-0.83,1.03c-0.04,0.86-0.07,2.31-0.07,4.35v5.11h12.09v-3.82
			c0-2.66-0.02-4.49-0.07-5.51c-0.04-0.6-0.32-0.98-0.83-1.16l-3.32-0.96l-0.1-1.59c2.7,0.07,5.64,0.1,8.83,0.1
			c3.3,0,6.55-0.03,9.76-0.1l0.17,1.59l-4.18,1.16c-0.51,0.16-0.79,0.49-0.83,1c-0.04,0.86-0.07,2.31-0.07,4.35v13.55
			C1110,439.94,1110.02,441.78,1110.07,442.82z"/>
		<path class="st4" d="M1134.64,418.12c4.71-2.15,9.25-3.22,13.61-3.22c3.98,0,6.97,0.89,8.95,2.67c1.98,1.78,2.96,4.34,2.94,7.69
			l-0.17,13.81c-0.04,1.13-0.02,2.04,0.07,2.72c0.09,0.69,0.29,1.21,0.61,1.58c0.32,0.37,0.8,0.63,1.43,0.78
			c0.63,0.16,1.54,0.24,2.74,0.27l0.2,1.53c-3.1,1.06-5.77,1.59-8,1.59c-3.01,0-4.99-1.18-5.94-3.55c-2.81,2.37-5.79,3.55-8.93,3.55
			c-3.08,0-5.61-0.77-7.6-2.31s-2.99-3.7-2.99-6.49c0-3.47,1.61-6.02,4.83-7.64c3.22-1.62,8.05-2.42,14.49-2.42l0.03-2.49
			c0.02-2.37-0.55-4.11-1.71-5.23c-1.16-1.12-2.97-1.68-5.43-1.68c-2.28,0-5.01,0.5-8.2,1.49L1134.64,418.12z M1150.88,431.83
			c-3.48,0-5.96,0.44-7.44,1.33c-1.48,0.89-2.22,2.4-2.22,4.55c0,1.95,0.53,3.34,1.58,4.17c1.05,0.83,2.3,1.25,3.74,1.25
			c1.64,0,3.07-0.42,4.28-1.26L1150.88,431.83z"/>
	</g>
</g>
<g id="КРОНА_copy_3">
	<g>
		<path class="st5" d="M680.87,171.74c-18.7-27.34-88.72-89.31-88.21-84.2c2.68,27.1-45.39,65.83-65.88,89.9
			c-17.9,21.04-28.99,46.54-28.99,80.42c0,32.51,8.98,58.29,26.93,77.33c17.96,19.05,43.32,28.57,76.11,28.57
			c34.54,0,61.43-10.3,80.65-30.92c19.23-20.61,28.84-47.86,28.84-81.74C710.33,219.18,698.74,197.87,680.87,171.74z M658.42,329.14
			c-13.89,12.93-35.69,21.2-52.92,21.2c-24.97,0-48.05-10.56-58.7-23.45c-17.46-21.12-24.05-35.8-24.05-67.72
			c0-31.33,8.69-46.26,21.41-66.61c10.57-16.93,50.8-50.9,58.35-75.66c0.46-1.52,48.06,36.55,66.6,75.08
			c9.01,18.73,18.69,35.57,16.94,67.01C684.21,291.93,675.1,313.62,658.42,329.14z"/>
	</g>
</g>
<g id="КРОНА_copy_6">
	<g>
		<path class="st2" d="M612.32,329.8c-0.1,6.17,1.25,58.16,1.25,58.16c0,5.88,2.66,27.09,2.71,31.79c0.05,4.7,1.3,9.22,1.4,12.94
			c0.1,2.25,1.37,3.77,3.82,4.55l20.27,6.17l0.29,6.32c-14.2-0.29-27.13-0.44-38.78-0.44c-11.85,0-23.99,0.15-36.43,0.44l-0.59-6.32
			l18.07-5.43c2.55-0.78,3.87-2.3,3.97-4.55c0.1-3.92,1.78-8.61,1.83-13.46s2.4-19.09,3.24-35.46c0.84-16.37,0.13-17.9,2.15-43.06
			c0.32-3.98-4.03-12.62-10.12-23.48c-1.17-2.09,12.2,13.68,12.72,10.01c2.2-15.83,1.98-43.21,4.08-43.42
			c3.97-0.41,3.25,25.45,7.94,30.54c0.75,0.81,3.8-6.37,10.41-10.56C624.75,301.88,612.58,314.62,612.32,329.8z"/>
	</g>
</g>
</svg>
