<svg xmlns="http://www.w3.org/2000/svg" width="27" height="27">
    <path fill="#369c6d" fill-rule="evenodd" d="M3 8.999a1.5 1.5 0 1 1-3 0v-4.5a4.5 4.5 0 0 1 4.5-4.5H9a1.5 1.5 0 0 1 0 3H4.5a1.5 1.5 0 0 0-1.5 1.5v4.5zm4.844 8.038l2.633-3.159a.6.6 0 0 0 0-.768L7.852 9.959a1.5 1.5 0 1 1 2.304-1.92l3.746 4.494a1.5 1.5 0 0 1 0 1.921l-3.753 4.504a1.501 1.501 0 0 1-2.305-1.921zm6.75 0l2.633-3.159a.6.6 0 0 0 0-.768l-2.625-3.151a1.5 1.5 0 1 1 2.304-1.92l3.746 4.494a1.5 1.5 0 0 1 0 1.921l-3.753 4.504a1.501 1.501 0 0 1-2.305-1.921zM15 2.999a1.5 1.5 0 1 1 0-3h7.5a4.5 4.5 0 0 1 4.5 4.5v18a4.5 4.5 0 0 1-4.5 4.5h-18a4.5 4.5 0 0 1-4.5-4.5v-7.5a1.5 1.5 0 1 1 3 0v7.5a1.5 1.5 0 0 0 1.5 1.5h18a1.5 1.5 0 0 0 1.5-1.5v-18a1.5 1.5 0 0 0-1.5-1.5H15z"/>
</svg>
