<svg xmlns="http://www.w3.org/2000/svg" width="22" height="22">
    <path fill="#FCE6B3" fill-rule="evenodd" d="M18.735 8.683a1.087 1.087 0 1 1-2.171 0 3.26 3.26 0 0 0-3.258-3.261 1.086 1.086 0 0 1 0-2.174 5.433 5.433 0 0 1 5.429 5.435zm-10.497.136l4.933 4.939.822-.823a3.486 3.486 0 0 1 4.934 0l.822.823a3.496 3.496 0 0 1 0 4.939l-.822.823a2.812 2.812 0 0 1-.14.129.272.272 0 0 1-.04.051l-.718.719c-1.981 1.983-5.06 2.117-6.876.299-2.178-1.583-3.972-3.079-5.382-4.491-1.148-1.149-2.643-2.945-4.485-5.388-1.816-1.818-1.682-4.901.299-6.885l.718-.718a.327.327 0 0 1 .051-.041c.04-.047.083-.093.128-.139l.823-.823a3.485 3.485 0 0 1 4.933 0l.822.823a3.496 3.496 0 0 1 0 4.939l-.822.824zm13.754-.136a1.087 1.087 0 1 1-2.172 0 6.518 6.518 0 0 0-6.514-6.522 1.086 1.086 0 1 1 0-2.174c4.797 0 8.686 3.893 8.686 8.696zM6.593 7.172l.822-.823a1.165 1.165 0 0 0 0-1.646l-.822-.824a1.162 1.162 0 0 0-1.644 0l-.822.824-.983.986C2.071 6.761 2.108 8.37 2.931 9.193l.114.115.097.128c1.783 2.364 3.216 4.086 4.273 5.145 1.316 1.318 3.026 2.73 5.111 4.244l.141.116.13.13c.822.823 2.43.861 3.488-.203l.995-.996.824-.821a1.166 1.166 0 0 0 0-1.647l-.822-.823a1.16 1.16 0 0 0-1.644 0l-.822.823c-.909.91-2.381.91-3.289 0l-4.934-4.939a2.33 2.33 0 0 1 0-3.293z"/>
</svg>
