<svg xmlns="http://www.w3.org/2000/svg" width="25" height="25">
    <path fill="#FFFFFF" fill-rule="evenodd" d="M21.311 9.855a1.234 1.234 0 0 1-2.469 0 3.703 3.703 0 0 0-3.703-3.701 1.233 1.233 0 1 1 0-2.467 6.17 6.17 0 0 1 6.172 6.168zm-11.935.155l5.609 5.605.935-.934a3.968 3.968 0 0 1 5.609 0l.935.934a3.962 3.962 0 0 1 0 5.606l-.935.934c-.051.052-.104.1-.158.147a.31.31 0 0 1-.046.057l-.816.816c-2.253 2.252-5.753 2.404-7.818.339-2.477-1.795-4.516-3.494-6.119-5.096-1.306-1.305-3.005-3.343-5.099-6.115-2.065-2.065-1.913-5.563.34-7.815l.816-.815a.245.245 0 0 1 .058-.045c.046-.055.094-.108.145-.159l.935-.934a3.966 3.966 0 0 1 5.609 0l.935.934a3.962 3.962 0 0 1 0 5.606l-.935.935zm15.638-.155a1.234 1.234 0 0 1-2.469 0 7.404 7.404 0 0 0-7.406-7.402 1.233 1.233 0 1 1 0-2.467c5.454 0 9.875 4.419 9.875 9.869zM7.507 8.14l.934-.934a1.32 1.32 0 0 0 0-1.869l-.934-.934a1.325 1.325 0 0 0-1.87 0l-.935.934-1.117 1.121c-1.22 1.215-1.177 3.042-.243 3.976l.13.13.111.147c2.027 2.683 3.656 4.637 4.858 5.839 1.497 1.495 3.44 3.098 5.811 4.817l.161.131.147.148c.935.934 2.762.977 3.966-.231l1.131-1.13.937-.932a1.322 1.322 0 0 0 0-1.869l-.935-.934a1.322 1.322 0 0 0-1.869 0l-.935.934a2.645 2.645 0 0 1-3.739 0l-5.609-5.606a2.642 2.642 0 0 1 0-3.738z"/>
</svg>
