<svg xmlns="http://www.w3.org/2000/svg" width="33.332" height="33.332">
    <path fill="#378467" fill-rule="evenodd" d="M21.311 9.856a1.234 1.234 0 0 1-2.469 0 3.702 3.702 0 0 0-3.703-3.701 1.235 1.235 0 0 1 0-2.468 6.17 6.17 0 0 1 6.172 6.169zm-11.935.154l5.609 5.606.935-.934a3.966 3.966 0 0 1 5.609 0l.935.934a3.962 3.962 0 0 1 0 5.606l-.935.934c-.051.051-.104.1-.158.146a.317.317 0 0 1-.046.058l-.816.815c-2.253 2.252-5.753 2.404-7.818.34-2.477-1.796-4.516-3.494-6.119-5.096-1.306-1.305-3.005-3.344-5.099-6.115-2.065-2.065-1.913-5.564.34-7.815l.816-.815a.28.28 0 0 1 .058-.046c.046-.055.095-.107.146-.158l.934-.935a3.968 3.968 0 0 1 5.609 0l.935.935a3.961 3.961 0 0 1 0 5.605l-.935.935zm15.638-.154a1.233 1.233 0 1 1-2.469 0 7.404 7.404 0 0 0-7.406-7.402 1.234 1.234 0 0 1 0-2.468c5.454 0 9.875 4.419 9.875 9.87zM7.507 8.141l.935-.934a1.322 1.322 0 0 0 0-1.869l-.935-.934a1.323 1.323 0 0 0-1.87 0l-.935.934-1.117 1.12c-1.22 1.216-1.177 3.042-.242 3.976l.13.13.11.148c2.027 2.682 3.656 4.636 4.859 5.838 1.496 1.495 3.44 3.098 5.81 4.817l.161.132.147.148c.935.934 2.762.976 3.966-.231l1.131-1.131.937-.932a1.32 1.32 0 0 0 0-1.868l-.935-.935a1.322 1.322 0 0 0-1.869 0l-.935.935a2.647 2.647 0 0 1-3.739 0l-5.609-5.606a2.642 2.642 0 0 1 0-3.738z"/>
</svg>
