<svg xmlns="http://www.w3.org/2000/svg" width="21" height="26">
    <path fill="#FCE6B3" fill-rule="evenodd" d="M0 9.567c.012-.184.027-.34.043-.467C.639 4.367 4.464-.001 10.502-.001c6.039 0 9.864 4.369 10.46 9.102.016.127.03.283.042.466.03.43-.3.802-.735.831l-.053.001h-.817c-.544 0-.998-.408-1.049-.942a5.553 5.553 0 0 0-.044-.353c-.584-3.676-3.641-6.505-7.804-6.505s-7.22 2.83-7.805 6.506a6.44 6.44 0 0 0-.043.352 1.048 1.048 0 0 1-1.049.942H.789a.785.785 0 0 1-.791-.779c0-.018 0-.036.002-.053zm3.027 4.217c.054.21.102.382.145.518.646 2.039 1.811 3.756 3.377 5.197.935.861 1.953 1.614 2.947 2.113.34.171.743.393 1.006.488.259-.092.672-.315 1.001-.482 1.002-.507 2.018-1.258 2.952-2.119 1.575-1.45 2.741-3.151 3.385-5.196.042-.135.09-.308.143-.516a1.052 1.052 0 0 1 1.023-.788h.84a.786.786 0 0 1 .77.958c-.031.132-.06.246-.087.342-1.31 4.747-4.853 7.612-7.391 9.1 3.793.182 6.588.713 6.588 1.3 0 .719-4.13 1.3-9.224 1.3s-9.224-.581-9.224-1.3c0-.568 2.794-1.123 6.589-1.3-2.543-1.484-6.084-4.348-7.393-9.098a8.116 8.116 0 0 1-.087-.345.78.78 0 0 1 .77-.957h.848c.483 0 .904.324 1.022.785zm7.475 1.815c-2.911 0-5.271-2.328-5.271-5.2 0-2.871 2.36-5.2 5.271-5.2s5.271 2.329 5.271 5.2c0 2.872-2.36 5.2-5.271 5.2zm0-2.6c1.456 0 2.636-1.164 2.636-2.6 0-1.436-1.18-2.6-2.636-2.6-1.455 0-2.635 1.164-2.635 2.6 0 1.436 1.18 2.6 2.635 2.6z"/>
</svg>
