<svg xmlns="http://www.w3.org/2000/svg" width="204" height="204">
    <path fill="#F8F7EA" fill-rule="evenodd" d="M197.889 203.986l6.106-6.105v6.105h-6.106zm-16.744 0l22.85-22.85v6.106l-16.744 16.744h-6.106zm-16.744 0l39.594-39.594v6.106l-33.488 33.488h-6.106zm-16.744 0l56.338-56.336v6.105l-50.232 50.231h-6.106zm-16.744 0l73.082-73.081v6.106l-66.976 66.975h-6.106zm-16.744 0l89.826-89.825v6.106l-83.72 83.719h-6.106zm-16.744 0l106.57-106.569v6.106L103.531 203.986h-6.106zm-16.744 0L203.995 80.673v6.106L86.787 203.986h-6.106zm-16.744 0L203.995 63.929v6.106L70.043 203.986h-6.106zm-16.743 0L203.995 47.185v6.106L53.3 203.986h-6.106zm-16.744 0L203.995 30.441v6.106L36.556 203.986H30.45zm-16.744 0L203.995 13.697v6.106L19.811 203.986h-6.105zm-13.703 0v-3.041L200.954-.005h3.041V3.06L3.068 203.986H.003zm0-13.687v-6.098L184.21-.005h6.106L.007 190.303l-.004-.004zm0-16.744v-6.098L167.466-.005h6.106L.007 173.559l-.004-.004zm0-16.744v-6.098L150.722-.005h6.105L.007 156.815l-.004-.004zm0-16.744v-6.099L133.977-.005h6.106L.007 140.071l-.004-.004zm0-16.744v-6.098L117.233-.005h6.106L.007 123.327l-.004-.004zm0-16.743v-6.098L100.49-.005h6.106L.007 106.584l-.004-.004zm0-16.744v-6.098L83.746-.005h6.106L.007 89.84l-.004-.004zm0-16.744v-6.098L67.002-.005h6.106L.007 73.096l-.004-.004zm0-16.744V50.25L50.258-.005h6.106L.007 56.352l-.004-.004zm0-16.744v-6.098L33.514-.005h6.106L.007 39.608l-.004-.004zm0-16.744v-6.098L16.77-.005h6.106L.007 22.864l-.004-.004zm0-16.744V.018l.023-.023h6.106L.007 6.12l-.004-.004z"/>
</svg>
