<svg 
 xmlns="http://www.w3.org/2000/svg"
 xmlns:xlink="http://www.w3.org/1999/xlink"
 width="9.525mm" height="9.172mm">
<path fill-rule="evenodd"  fill="rgb(255, 255, 255)"
 d="M10.020,23.399 C10.742,23.399 11.326,23.981 11.326,24.699 C11.326,25.417 10.742,25.999 10.020,25.999 L8.714,25.999 C4.386,25.999 0.878,22.507 0.878,18.199 L0.878,16.899 C0.878,16.181 1.462,15.599 2.184,15.599 C2.905,15.599 3.490,16.181 3.490,16.899 L3.490,18.199 C3.490,21.071 5.829,23.399 8.714,23.399 L10.020,23.399 ZM3.490,12.999 C3.490,13.717 2.905,14.299 2.184,14.299 C1.462,14.299 0.878,13.717 0.878,12.999 L0.878,7.799 C0.878,3.491 4.386,-0.001 8.714,-0.001 L19.163,-0.001 C23.491,-0.001 27.000,3.491 27.000,7.799 L27.000,18.199 C27.000,22.507 23.491,25.999 19.163,25.999 L13.939,25.999 C13.217,25.999 12.633,25.417 12.633,24.699 C12.633,23.981 13.217,23.399 13.939,23.399 L19.163,23.399 C22.049,23.399 24.388,21.071 24.388,18.199 L24.388,7.799 C24.388,4.928 22.049,2.599 19.163,2.599 L8.714,2.599 C5.829,2.599 3.490,4.928 3.490,7.799 L3.490,12.999 ZM21.775,9.436 C21.775,10.378 19.755,13.415 19.490,13.831 C19.224,14.247 18.918,14.404 19.490,15.087 C20.062,15.769 21.775,17.598 21.775,18.226 C21.775,18.540 21.449,18.849 21.122,18.849 L19.424,18.849 C18.837,18.849 18.579,18.287 17.417,17.033 C16.400,15.974 15.898,16.028 15.702,16.028 C15.571,16.028 15.245,16.028 15.245,16.656 L15.261,18.130 C15.261,18.585 15.126,18.849 14.037,18.849 C9.367,18.849 6.102,11.316 6.102,9.432 C6.102,9.119 6.428,8.809 6.755,8.809 L8.388,8.809 C8.714,8.809 8.975,8.805 9.171,9.432 C9.994,12.070 11.326,14.455 11.980,14.455 C12.306,14.455 12.633,14.455 12.633,13.827 L12.633,9.436 C12.633,9.090 12.925,8.809 13.286,8.809 L14.592,8.809 C14.952,8.809 15.245,9.090 15.245,9.436 L15.245,12.890 C15.245,13.517 15.402,13.517 15.571,13.517 C16.551,13.513 18.184,10.692 18.837,9.436 C18.967,9.123 19.163,8.809 19.490,8.809 L21.122,8.809 C21.558,8.809 21.775,9.018 21.775,9.436 Z"/>
</svg>